<svg xmlns="http://www.w3.org/2000/svg" width="400" height="600" viewBox="0 0 400 600"><rect width="100%" height="100%" fill="#DDDDDD"/><path fill="#999999" d="M188.83 206.395h10.55v64.35h-6.14q-1.43 0-2.38-.47-.96-.46-1.85-1.58l-33.6-42.9q.27 2.94.27 5.43v39.52h-10.55v-64.35h6.28q.75 0 1.31.07t.98.27q.42.2.82.58.4.37.89 1l33.73 43.07q-.13-1.55-.22-3.07-.09-1.51-.09-2.8v-39.12Zm43.34 17.98q5.08 0 9.24 1.65 4.16 1.64 7.12 4.67 2.96 3.03 4.56 7.39 1.6 4.36 1.6 9.74 0 5.43-1.6 9.79-1.6 4.36-4.56 7.43-2.96 3.07-7.12 4.72t-9.24 1.65q-5.11 0-9.3-1.65-4.18-1.65-7.14-4.72t-4.58-7.43q-1.63-4.36-1.63-9.79 0-5.38 1.63-9.74 1.62-4.36 4.58-7.39 2.96-3.03 7.14-4.67 4.19-1.65 9.3-1.65Zm0 38.58q5.7 0 8.44-3.82 2.73-3.83 2.73-11.22 0-7.39-2.73-11.26-2.74-3.87-8.44-3.87-5.78 0-8.56 3.9-2.78 3.89-2.78 11.23t2.78 11.19q2.78 3.85 8.56 3.85Zm-135.48 50.24v64.35H84.68v-64.35h12.01Zm23.63 64.35h-10.99v-45.66h6.72q2.14 0 2.8 2.01l.72 3.38q1.2-1.34 2.51-2.45 1.31-1.11 2.8-1.91 1.5-.8 3.21-1.27t3.76-.47q4.32 0 7.1 2.34 2.78 2.33 4.16 6.2 1.07-2.26 2.67-3.89 1.6-1.62 3.51-2.65 1.92-1.02 4.07-1.51 2.16-.49 4.34-.49 3.79 0 6.72 1.16 2.94 1.15 4.94 3.38 2 2.22 3.05 5.43 1.05 3.2 1.05 7.34v29.06h-11v-29.06q0-4.36-1.91-6.56-1.91-2.21-5.61-2.21-1.69 0-3.13.58-1.45.58-2.54 1.67-1.09 1.09-1.71 2.74-.63 1.65-.63 3.78v29.06H135.9v-29.06q0-4.58-1.85-6.67-1.85-2.1-5.41-2.1-2.4 0-4.47 1.18t-3.85 3.23v33.42Zm87.67-11.79v-7.7q-4.76.22-8.01.82t-5.21 1.54q-1.96.93-2.8 2.18-.85 1.24-.85 2.71 0 2.89 1.72 4.14 1.71 1.25 4.47 1.25 3.38 0 5.85-1.23 2.47-1.22 4.83-3.71Zm-23.23-23.99-1.96-3.51q7.88-7.21 18.96-7.21 4 0 7.16 1.31t5.34 3.65q2.18 2.34 3.32 5.58 1.13 3.25 1.13 7.12v28.84h-4.98q-1.56 0-2.4-.47-.85-.46-1.34-1.89l-.98-3.29q-1.73 1.56-3.38 2.74-1.65 1.17-3.43 1.98-1.78.8-3.8 1.22-2.03.42-4.47.42-2.9 0-5.34-.78-2.45-.78-4.23-2.33-1.78-1.56-2.76-3.87-.98-2.32-.98-5.39 0-1.73.58-3.45.58-1.71 1.89-3.27t3.4-2.94q2.1-1.38 5.14-2.4 3.05-1.02 7.1-1.67 4.05-.64 9.26-.78v-2.67q0-4.58-1.96-6.78-1.96-2.21-5.65-2.21-2.67 0-4.43.63-1.76.62-3.09 1.4-1.34.78-2.43 1.4-1.09.62-2.42.62-1.16 0-1.96-.6t-1.29-1.4Zm60.96 11.84q2.05 0 3.56-.56 1.52-.55 2.52-1.53t1.51-2.36q.51-1.38.51-3.03 0-3.38-2.02-5.36-2.03-1.98-6.08-1.98-4.05 0-6.07 1.98-2.02 1.98-2.02 5.36 0 1.6.51 2.98t1.51 2.39q1 1 2.54 1.55 1.53.56 3.53.56Zm12.42 25.99q0-1.34-.8-2.18-.8-.85-2.18-1.32-1.38-.46-3.23-.69-1.84-.22-3.91-.33-2.07-.11-4.28-.2-2.2-.09-4.29-.36-1.82 1.03-2.96 2.41-1.13 1.38-1.13 3.2 0 1.2.6 2.25.6 1.04 1.91 1.8t3.4 1.18q2.1.42 5.12.42 3.07 0 5.3-.46 2.22-.47 3.67-1.3 1.44-.82 2.11-1.95.67-1.14.67-2.47Zm-2.18-46.15h13.13v4.09q0 1.96-2.36 2.41l-4.1.75q.94 2.36.94 5.17 0 3.38-1.36 6.11-1.36 2.74-3.76 4.65-2.4 1.92-5.67 2.96-3.27 1.05-7.06 1.05-1.33 0-2.58-.13-1.24-.14-2.44-.36-2.14 1.29-2.14 2.89 0 1.38 1.27 2.03 1.27.64 3.36.91t4.76.33q2.67.07 5.47.29 2.81.23 5.48.78 2.67.56 4.76 1.76t3.36 3.27q1.27 2.07 1.27 5.32 0 3.02-1.5 5.87-1.49 2.85-4.31 5.07-2.83 2.23-6.94 3.59-4.12 1.35-9.37 1.35-5.16 0-8.99-1t-6.36-2.67q-2.54-1.67-3.79-3.85-1.24-2.18-1.24-4.54 0-3.2 1.93-5.36 1.94-2.16 5.32-3.45-1.82-.93-2.89-2.49t-1.07-4.09q0-1.03.38-2.12t1.11-2.15q.74-1.07 1.85-2.03 1.11-.96 2.62-1.71-3.47-1.87-5.45-4.99-1.98-3.11-1.98-7.29 0-3.39 1.36-6.12 1.36-2.74 3.78-4.68 2.43-1.93 5.74-2.95 3.32-1.03 7.23-1.03 2.94 0 5.52.6 2.58.6 4.72 1.76Zm28.75 16.02h20.73q0-2.14-.6-4.03-.6-1.89-1.8-3.31-1.2-1.43-3.05-2.25-1.84-.82-4.29-.82-4.76 0-7.5 2.71-2.74 2.72-3.49 7.7Zm28.03 6.63h-28.26q.27 3.52 1.25 6.08.98 2.55 2.58 4.22t3.81 2.49q2.2.83 4.87.83t4.6-.63q1.94-.62 3.39-1.37 1.44-.76 2.53-1.38 1.09-.63 2.12-.63 1.38 0 2.04 1.03l3.16 4q-1.82 2.14-4.09 3.58-2.27 1.45-4.74 2.32-2.47.87-5.03 1.22-2.56.36-4.96.36-4.76 0-8.86-1.58-4.09-1.58-7.12-4.67-3.02-3.1-4.76-7.66-1.73-4.56-1.73-10.57 0-4.67 1.51-8.79 1.51-4.11 4.34-7.16 2.82-3.05 6.9-4.83 4.07-1.78 9.19-1.78 4.31 0 7.96 1.38 3.65 1.38 6.28 4.03 2.62 2.65 4.11 6.49 1.49 3.85 1.49 8.79 0 2.5-.53 3.36-.54.87-2.05.87Z"/></svg>