<svg xmlns="http://www.w3.org/2000/svg" width="600" height="400" viewBox="0 0 600 400"><rect width="100%" height="100%" fill="#DDDDDD"/><path fill="#999999" d="M287.45 94.825h11.85v72.3h-6.9q-1.6 0-2.67-.53-1.08-.52-2.08-1.77l-37.75-48.2q.3 3.3.3 6.1v44.4h-11.85v-72.3h7.05q.85 0 1.48.07.62.08 1.09.31.48.22.93.64.45.43 1 1.13l37.9 48.4q-.15-1.75-.25-3.45-.1-1.7-.1-3.15v-43.95Zm48.7 20.2q5.7 0 10.38 1.85 4.67 1.85 8 5.25 3.32 3.4 5.12 8.3 1.8 4.9 1.8 10.95 0 6.1-1.8 11t-5.12 8.35q-3.33 3.45-8 5.3-4.68 1.85-10.38 1.85-5.75 0-10.45-1.85-4.7-1.85-8.02-5.3-3.33-3.45-5.15-8.35-1.83-4.9-1.83-11 0-6.05 1.83-10.95 1.82-4.9 5.15-8.3 3.32-3.4 8.02-5.25 4.7-1.85 10.45-1.85Zm0 43.35q6.4 0 9.48-4.3 3.07-4.3 3.07-12.6t-3.07-12.65q-3.08-4.35-9.48-4.35-6.5 0-9.62 4.38-3.13 4.37-3.13 12.62t3.13 12.57q3.12 4.33 9.62 4.33Zm-152.23 56.45v72.3h-13.5v-72.3h13.5Zm26.55 72.3h-12.35v-51.3h7.55q2.4 0 3.15 2.25l.8 3.8q1.35-1.5 2.83-2.75 1.47-1.25 3.15-2.15 1.67-.9 3.6-1.43 1.92-.52 4.22-.52 4.85 0 7.98 2.63 3.12 2.62 4.67 6.97 1.2-2.55 3-4.37 1.8-1.83 3.95-2.98 2.15-1.15 4.58-1.7 2.42-.55 4.87-.55 4.25 0 7.55 1.3t5.55 3.8q2.25 2.5 3.43 6.1 1.17 3.6 1.17 8.25v32.65h-12.35v-32.65q0-4.9-2.15-7.38-2.15-2.47-6.3-2.47-1.9 0-3.52.65-1.63.65-2.85 1.88-1.23 1.22-1.93 3.07-.7 1.85-.7 4.25v32.65h-12.4v-32.65q0-5.15-2.07-7.5-2.08-2.35-6.08-2.35-2.7 0-5.02 1.32-2.33 1.33-4.33 3.63v37.55Zm98.5-13.25v-8.65q-5.35.25-9 .93-3.65.67-5.85 1.72-2.2 1.05-3.15 2.45-.95 1.4-.95 3.05 0 3.25 1.93 4.65 1.92 1.4 5.02 1.4 3.8 0 6.58-1.38 2.77-1.37 5.42-4.17Zm-26.1-26.95-2.2-3.95q8.85-8.1 21.3-8.1 4.5 0 8.05 1.47 3.55 1.48 6 4.1 2.45 2.63 3.73 6.28 1.27 3.65 1.27 8v32.4h-5.59q-1.76 0-2.71-.53-.95-.52-1.5-2.12l-1.1-3.7q-1.95 1.75-3.8 3.07-1.85 1.33-3.85 2.23-2 .9-4.27 1.38-2.28.47-5.03.47-3.25 0-6-.88-2.75-.87-4.75-2.62t-3.1-4.35q-1.1-2.6-1.1-6.05 0-1.95.65-3.87.65-1.93 2.13-3.68 1.47-1.75 3.82-3.3 2.35-1.55 5.78-2.7 3.42-1.15 7.97-1.88 4.55-.72 10.4-.87v-3q0-5.15-2.2-7.63-2.2-2.47-6.35-2.47-3 0-4.97.7-1.98.7-3.48 1.58-1.5.87-2.72 1.57-1.23.7-2.73.7-1.3 0-2.2-.67-.9-.68-1.45-1.58Zm68.5 13.3q2.31 0 4-.63 1.7-.62 2.83-1.72 1.12-1.1 1.7-2.65.57-1.55.57-3.4 0-3.8-2.27-6.03-2.27-2.22-6.83-2.22-4.55 0-6.82 2.22-2.28 2.23-2.28 6.03 0 1.8.58 3.35t1.7 2.67q1.13 1.13 2.85 1.75 1.72.63 3.97.63Zm13.96 29.2q0-1.5-.9-2.45-.91-.95-2.46-1.47-1.55-.53-3.62-.78-2.08-.25-4.4-.38-2.33-.12-4.8-.22-2.47-.1-4.83-.4-2.05 1.15-3.32 2.7-1.28 1.55-1.28 3.6 0 1.35.68 2.52.67 1.18 2.15 2.03 1.47.85 3.82 1.33 2.35.47 5.75.47 3.45 0 5.95-.53 2.5-.52 4.13-1.44 1.63-.93 2.38-2.2.75-1.28.75-2.78Zm-2.46-51.85h14.75v4.6q0 2.2-2.65 2.7l-4.6.85q1.06 2.65 1.06 5.8 0 3.8-1.53 6.88-1.53 3.07-4.22 5.22-2.71 2.15-6.38 3.33-3.68 1.17-7.93 1.17-1.5 0-2.9-.15t-2.75-.4q-2.4 1.45-2.4 3.25 0 1.55 1.43 2.27 1.43.73 3.77 1.03 2.35.3 5.35.38 3 .07 6.15.32 3.16.25 6.16.88 3 .62 5.34 1.97 2.35 1.35 3.78 3.67 1.42 2.33 1.42 5.98 0 3.4-1.67 6.6-1.68 3.2-4.85 5.7-3.18 2.5-7.8 4.03-4.63 1.52-10.53 1.52-5.8 0-10.1-1.12-4.3-1.13-7.15-3-2.85-1.88-4.25-4.33t-1.4-5.1q0-3.6 2.18-6.03 2.17-2.42 5.97-3.87-2.05-1.05-3.25-2.8-1.2-1.75-1.2-4.6 0-1.15.43-2.37.42-1.23 1.25-2.43.82-1.2 2.07-2.27 1.25-1.08 2.95-1.93-3.9-2.1-6.12-5.6-2.23-3.5-2.23-8.2 0-3.8 1.53-6.87 1.52-3.08 4.25-5.25 2.72-2.18 6.45-3.33 3.72-1.15 8.12-1.15 3.31 0 6.2.67 2.9.68 5.3 1.98Zm32.31 18h23.3q0-2.4-.68-4.53-.67-2.12-2.02-3.72t-3.43-2.53q-2.07-.92-4.82-.92-5.35 0-8.43 3.05-3.07 3.05-3.92 8.65Zm31.5 7.45h-31.75q.3 3.95 1.4 6.82 1.1 2.88 2.9 4.75 1.8 1.88 4.27 2.81 2.48.92 5.48.92 3 0 5.17-.7 2.18-.7 3.8-1.55 1.63-.85 2.85-1.55 1.23-.7 2.38-.7 1.55 0 2.3 1.15l3.55 4.5q-2.05 2.4-4.6 4.03-2.55 1.62-5.33 2.59-2.77.98-5.65 1.38-2.87.4-5.57.4-5.35 0-9.95-1.78-4.6-1.77-8-5.25-3.4-3.47-5.35-8.59-1.95-5.13-1.95-11.88 0-5.25 1.7-9.87 1.7-4.63 4.87-8.06 3.18-3.42 7.75-5.42 4.58-2 10.33-2 4.85 0 8.95 1.55t7.05 4.52q2.95 2.98 4.62 7.31 1.68 4.32 1.68 9.87 0 2.8-.6 3.77-.6.98-2.3.98Z"/></svg>